<svg width="157" height="39" viewBox="0 0 157 39" fill="none" xmlns="http://www.w3.org/2000/svg">
<circle cx="19.3549" cy="19.3549" r="18.8549" stroke="#A4A7B1"/>
<path d="M25.4204 15.25L23.3308 25.1048C23.1731 25.8003 22.762 25.9734 22.1778 25.6457L18.9938 23.2995L17.4575 24.7771C17.2875 24.9471 17.1453 25.0893 16.8176 25.0893L17.0464 21.8467L22.9475 16.5143C23.204 16.2856 22.8918 16.1589 22.5487 16.3876L15.2535 20.9811L12.1128 19.9981C11.4297 19.7848 11.4173 19.315 12.255 18.9873L24.5394 14.2547C25.1082 14.0414 25.6059 14.3814 25.4204 15.25Z" fill="#A4A7B1"/>
<circle cx="78.0649" cy="19.3549" r="18.8549" stroke="#A4A7B1"/>
<path d="M76.6444 25.1609V19.7118H75.1621V17.7498H76.6444V16.0741C76.6444 14.7572 77.5199 13.5479 79.5375 13.5479C80.3543 13.5479 80.9583 13.6241 80.9583 13.6241L80.9108 15.4562C80.9108 15.4562 80.2947 15.4504 79.6225 15.4504C78.895 15.4504 78.7784 15.7763 78.7784 16.3172V17.7498H80.9686L80.8733 19.7118H78.7784V25.1609H76.6444Z" fill="#A4A7B1"/>
<circle cx="136.775" cy="19.3549" r="18.8549" stroke="#222831"/>
<path fill-rule="evenodd" clip-rule="evenodd" d="M133.982 12.6209C134.705 12.5877 134.935 12.5803 136.775 12.5803C138.615 12.5803 138.846 12.5883 139.567 12.6209C140.289 12.6535 140.782 12.7687 141.213 12.9356C141.664 13.1062 142.074 13.3728 142.413 13.7177C142.757 14.0558 143.024 14.4647 143.193 14.9168C143.361 15.3478 143.476 15.8405 143.509 16.561C143.542 17.2847 143.549 17.515 143.549 19.3545C143.549 21.1946 143.541 21.4249 143.509 22.1473C143.476 22.8678 143.361 23.3605 143.193 23.7916C143.023 24.2437 142.757 24.6533 142.413 24.9919C142.074 25.3367 141.664 25.6028 141.213 25.7728C140.782 25.9403 140.289 26.0548 139.569 26.0881C138.846 26.1213 138.615 26.1287 136.775 26.1287C134.935 26.1287 134.705 26.1207 133.982 26.0881C133.262 26.0554 132.769 25.9403 132.338 25.7728C131.886 25.6028 131.476 25.3363 131.138 24.9919C130.793 24.6536 130.526 24.2442 130.356 23.7922C130.189 23.3611 130.075 22.8685 130.042 22.1479C130.008 21.4243 130.001 21.194 130.001 19.3545C130.001 17.5144 130.009 17.284 130.042 16.5623C130.074 15.8405 130.189 15.3478 130.356 14.9168C130.527 14.4648 130.794 14.0554 131.138 13.7171C131.477 13.3725 131.886 13.1058 132.337 12.9356C132.769 12.7687 133.261 12.6542 133.982 12.6209H133.982ZM139.513 13.8403C138.798 13.8076 138.584 13.8009 136.775 13.8009C134.966 13.8009 134.752 13.8076 134.038 13.8403C133.377 13.8704 133.019 13.9807 132.78 14.0737C132.464 14.1968 132.238 14.3428 132.001 14.5799C131.776 14.7985 131.603 15.0647 131.494 15.3589C131.401 15.5979 131.291 15.9563 131.261 16.6171C131.228 17.3315 131.222 17.5458 131.222 19.3545C131.222 21.1632 131.228 21.3775 131.261 22.0919C131.291 22.7527 131.401 23.1111 131.494 23.35C131.603 23.6438 131.776 23.9105 132.001 24.1291C132.219 24.3539 132.486 24.5269 132.78 24.6353C133.019 24.7283 133.377 24.8385 134.038 24.8687C134.752 24.9013 134.966 24.9081 136.775 24.9081C138.585 24.9081 138.798 24.9013 139.513 24.8687C140.173 24.8385 140.532 24.7283 140.771 24.6353C141.087 24.5121 141.313 24.3662 141.55 24.1291C141.775 23.9105 141.948 23.6438 142.056 23.35C142.149 23.1111 142.259 22.7527 142.289 22.0919C142.322 21.3775 142.329 21.1632 142.329 19.3545C142.329 17.5458 142.322 17.3315 142.289 16.6171C142.259 15.9563 142.149 15.5979 142.056 15.3589C141.933 15.043 141.787 14.817 141.55 14.5799C141.331 14.3552 141.065 14.1822 140.771 14.0737C140.532 13.9807 140.173 13.8704 139.513 13.8403ZM135.91 21.4428C136.393 21.6439 136.931 21.6711 137.432 21.5196C137.933 21.3681 138.366 21.0474 138.657 20.6122C138.948 20.177 139.078 19.6543 139.027 19.1335C138.975 18.6126 138.744 18.1259 138.373 17.7564C138.137 17.5202 137.851 17.3393 137.537 17.2269C137.222 17.1144 136.886 17.073 136.554 17.1058C136.221 17.1386 135.9 17.2447 135.614 17.4165C135.327 17.5883 135.082 17.8215 134.896 18.0993C134.711 18.3771 134.589 18.6926 134.54 19.0231C134.491 19.3536 134.516 19.6909 134.613 20.0107C134.71 20.3304 134.876 20.6247 135.101 20.8724C135.325 21.12 135.601 21.3148 135.91 21.4428ZM134.313 16.8924C134.636 16.569 135.02 16.3126 135.443 16.1376C135.865 15.9626 136.318 15.8725 136.775 15.8725C137.232 15.8725 137.685 15.9626 138.108 16.1376C138.53 16.3126 138.914 16.569 139.237 16.8924C139.561 17.2157 139.817 17.5995 139.992 18.022C140.167 18.4444 140.257 18.8972 140.257 19.3545C140.257 19.8117 140.167 20.2645 139.992 20.687C139.817 21.1094 139.561 21.4933 139.237 21.8166C138.584 22.4696 137.699 22.8365 136.775 22.8365C135.852 22.8365 134.966 22.4696 134.313 21.8166C133.66 21.1636 133.293 20.278 133.293 19.3545C133.293 18.431 133.66 17.5454 134.313 16.8924ZM141.029 16.3911C141.11 16.3155 141.174 16.2246 141.218 16.1238C141.262 16.023 141.286 15.9143 141.288 15.8041C141.289 15.694 141.269 15.5847 141.227 15.4826C141.186 15.3805 141.125 15.2878 141.047 15.2099C140.969 15.132 140.876 15.0706 140.774 15.0292C140.672 14.9877 140.563 14.9672 140.452 14.9688C140.342 14.9704 140.234 14.9941 140.133 15.0385C140.032 15.0829 139.941 15.147 139.865 15.2271C139.718 15.383 139.638 15.5899 139.641 15.8041C139.644 16.0183 139.731 16.2229 139.882 16.3743C140.034 16.5258 140.238 16.6123 140.452 16.6154C140.667 16.6185 140.874 16.5381 141.029 16.3911Z" fill="#222831"/>
</svg>
